<svg id="Layer_1" data-name="Layer 1" xmlns="http://www.w3.org/2000/svg" width="16.58" height="17.35" viewBox="0 0 16.58 17.35"><defs><style>.cls-1{fill:#989897;}</style></defs><title>search_gray</title><path class="cls-1" d="M17.44,16.74l-4.26-4.4A6.92,6.92,0,0,0,15,7.53,7.25,7.25,0,0,0,7.89.37a7,7,0,0,0-5,2,7.1,7.1,0,0,0,.09,10,7.18,7.18,0,0,0,5,2.12h.07a6.93,6.93,0,0,0,4-1.29l4.3,4.45ZM8,13.48a6.1,6.1,0,0,1-4.28-1.81,6,6,0,0,1-.09-8.51A5.85,5.85,0,0,1,7.82,1.45h.06A6.17,6.17,0,0,1,14,7.54a5.85,5.85,0,0,1-1.72,4.23A6,6,0,0,1,8,13.48Z" transform="translate(-0.86 -0.37)"/></svg>